# Blender 3.5.1
# www.blender.org
mtllib strongEnemy.mtl
o 円柱
v 0.000000 1.726516 -0.500000
v 0.000000 1.726516 0.500000
v 0.378077 1.874086 -0.550258
v 0.378077 1.874086 0.550258
v 0.660709 1.595093 -0.500000
v 0.660709 1.595093 0.500000
v 1.062918 1.582466 -0.548511
v 1.062918 1.582466 0.548511
v 1.220831 1.220831 -0.500000
v 1.220831 1.220831 0.500000
v 1.587396 1.056005 -0.548389
v 1.587396 1.056005 0.548389
v 1.595093 0.660709 -0.500000
v 1.595093 0.660709 0.500000
v 1.864246 0.367947 -0.546586
v 1.864246 0.367947 0.546586
v 1.726516 0.000000 -0.500000
v 1.726516 -0.000000 0.500000
v 1.868207 -0.373525 -0.547913
v 1.868207 -0.373525 0.547913
v 1.595093 -0.660709 -0.500000
v 1.595093 -0.660709 0.500000
v 1.592000 -1.064931 -0.550749
v 1.592000 -1.064931 0.550749
v 1.220831 -1.220831 -0.500000
v 1.220831 -1.220831 0.500000
v 1.064277 -1.593242 -0.551147
v 1.064277 -1.593242 0.551147
v 0.660709 -1.595093 -0.500000
v 0.660709 -1.595093 0.500000
v 0.374084 -1.879896 -0.551628
v 0.374084 -1.879896 0.551628
v 0.000000 -1.726516 -0.500000
v 0.000000 -1.726516 0.500000
v -0.372460 -1.872484 -0.549830
v -0.372460 -1.872484 0.549830
v -0.660709 -1.595093 -0.500000
v -0.660709 -1.595093 0.500000
v -1.058407 -1.583300 -0.548815
v -1.058407 -1.583300 0.548814
v -1.220831 -1.220831 -0.500000
v -1.220831 -1.220831 0.500000
v -1.592785 -1.062832 -0.551855
v -1.592785 -1.062832 0.551855
v -1.595093 -0.660709 -0.500000
v -1.595093 -0.660709 0.500000
v -1.872505 -0.370285 -0.550302
v -1.872505 -0.370285 0.550302
v -1.726516 0.000000 -0.500000
v -1.726516 -0.000000 0.500000
v -1.867685 0.374689 -0.549228
v -1.867685 0.374689 0.549228
v -1.595093 0.660709 -0.500000
v -1.595093 0.660709 0.500000
v -1.582335 1.062172 -0.549348
v -1.582335 1.062172 0.549348
v -1.220831 1.220831 -0.500000
v -1.220831 1.220831 0.500000
v -1.058992 1.593797 -0.551267
v -1.058992 1.593797 0.551267
v -0.660709 1.595093 -0.500000
v -0.660709 1.595093 0.500000
v -0.367782 1.875833 -0.550458
v -0.367782 1.875833 0.550458
vn -0.3636 0.9316 -0.0000
vn 0.7025 0.7117 -0.0000
vn 0.0314 0.9995 -0.0000
vn 0.9164 0.4002 -0.0000
vn 0.4101 0.9120 -0.0000
vn 0.9998 0.0195 -0.0000
vn 0.7362 0.6768 -0.0000
vn 0.9365 -0.3506 -0.0000
vn 0.9350 0.3547 -0.0000
vn 0.7246 -0.6891 -0.0000
vn 1.0000 -0.0077 -0.0000
vn 0.3873 -0.9220 -0.0000
vn 0.9219 -0.3875 -0.0000
vn 0.0046 -1.0000 -0.0000
vn 0.7048 -0.7094 -0.0000
vn -0.3794 -0.9252 -0.0000
vn 0.3649 -0.9311 -0.0000
vn -0.6934 -0.7205 -0.0000
vn -0.0296 -0.9996 -0.0000
vn -0.9126 -0.4089 -0.0000
vn -0.3910 -0.9204 -0.0000
vn -1.0000 -0.0057 -0.0000
vn -0.7231 -0.6907 -0.0000
vn -0.9303 0.3668 -0.0000
vn -0.9358 -0.3526 -0.0000
vn -0.7239 0.6899 -0.0000
vn -0.9995 0.0318 -0.0000
vn -0.4019 0.9157 -0.0000
vn -0.9174 0.3981 -0.0000
vn -0.0033 1.0000 -0.0000
vn -0.0000 -0.0000 1.0000
vn -0.6919 0.7220 -0.0000
vn 0.3762 0.9265 -0.0000
vn -0.0000 -0.0000 -1.0000
vn -0.0437 -0.2199 0.9746
vn 0.0440 -0.2210 0.9743
vn 0.1260 -0.1885 0.9740
vn 0.1881 -0.1257 0.9741
vn 0.2223 -0.0442 0.9740
vn 0.2230 0.0444 0.9738
vn 0.1895 0.1266 0.9737
vn 0.1251 0.1873 0.9743
vn 0.0439 0.2206 0.9744
vn -0.0439 0.2208 0.9743
vn -0.1244 0.1861 0.9746
vn -0.1853 0.1238 0.9749
vn -0.2164 0.0430 0.9754
vn -0.2155 -0.0429 0.9756
vn -0.1840 -0.1230 0.9752
vn -0.1234 -0.1847 0.9750
vn -0.0437 -0.2199 -0.9746
vn -0.1234 -0.1847 -0.9750
vn -0.1840 -0.1230 -0.9752
vn -0.2155 -0.0429 -0.9756
vn -0.2164 0.0430 -0.9754
vn -0.1853 0.1238 -0.9749
vn -0.1244 0.1861 -0.9746
vn -0.0439 0.2208 -0.9743
vn 0.0439 0.2206 -0.9744
vn 0.1251 0.1873 -0.9743
vn 0.1895 0.1266 -0.9737
vn 0.2230 0.0444 -0.9738
vn 0.2223 -0.0442 -0.9740
vn 0.1881 -0.1257 -0.9741
vn 0.1260 -0.1885 -0.9740
vn 0.0440 -0.2210 -0.9743
vt 0.550172 0.734914
vt 0.443162 0.734914
vt 0.514351 0.961299
vt 0.550172 0.788419
vt 0.250000 0.490000
vt 0.443162 0.788419
vt 0.546828 0.734914
vt 0.607145 0.952160
vt 0.546828 0.788419
vt 0.296822 0.485388
vt 0.543484 0.734914
vt 0.696374 0.925092
vt 0.543484 0.788419
vt 0.341844 0.471731
vt 0.540139 0.734914
vt 0.778607 0.881138
vt 0.540139 0.788419
vt 0.383337 0.449553
vt 0.536795 0.734914
vt 0.850685 0.821985
vt 0.536795 0.788419
vt 0.419706 0.419706
vt 0.533451 0.734914
vt 0.909839 0.749906
vt 0.533451 0.788419
vt 0.449553 0.383337
vt 0.530107 0.734914
vt 0.953793 0.667673
vt 0.530107 0.788419
vt 0.471731 0.341844
vt 0.526763 0.734914
vt 0.980860 0.578444
vt 0.526763 0.788419
vt 0.485388 0.296822
vt 0.523419 0.734914
vt 0.990000 0.485649
vt 0.523419 0.788419
vt 0.490000 0.250000
vt 0.520075 0.734914
vt 0.980860 0.392855
vt 0.520075 0.788419
vt 0.485388 0.203178
vt 0.516731 0.734914
vt 0.953793 0.303626
vt 0.516731 0.788419
vt 0.471731 0.158156
vt 0.513387 0.734914
vt 0.909839 0.221393
vt 0.513387 0.788419
vt 0.449553 0.116663
vt 0.510043 0.734914
vt 0.850685 0.149315
vt 0.510043 0.788419
vt 0.419706 0.080294
vt 0.506699 0.734914
vt 0.778607 0.090161
vt 0.506699 0.788419
vt 0.383337 0.050447
vt 0.503355 0.734914
vt 0.696374 0.046207
vt 0.503355 0.788419
vt 0.341844 0.028269
vt 0.500011 0.734914
vt 0.607145 0.019139
vt 0.500011 0.788419
vt 0.296822 0.014612
vt 0.496667 0.734914
vt 0.514351 0.010000
vt 0.496667 0.788419
vt 0.250000 0.010000
vt 0.493323 0.734914
vt 0.421556 0.019139
vt 0.493323 0.788419
vt 0.203178 0.014612
vt 0.489979 0.734914
vt 0.332327 0.046207
vt 0.489979 0.788419
vt 0.158156 0.028269
vt 0.486634 0.734914
vt 0.250094 0.090161
vt 0.486634 0.788419
vt 0.116663 0.050447
vt 0.483290 0.734914
vt 0.178015 0.149315
vt 0.483290 0.788419
vt 0.080294 0.080294
vt 0.479946 0.734914
vt 0.118862 0.221393
vt 0.479946 0.788419
vt 0.050447 0.116663
vt 0.476602 0.734914
vt 0.074908 0.303626
vt 0.476602 0.788419
vt 0.028269 0.158156
vt 0.473258 0.734914
vt 0.047840 0.392855
vt 0.473258 0.788419
vt 0.014612 0.203178
vt 0.469914 0.734914
vt 0.038701 0.485649
vt 0.469914 0.788419
vt 0.010000 0.250000
vt 0.466570 0.734914
vt 0.047840 0.578444
vt 0.466570 0.788419
vt 0.014612 0.296822
vt 0.463226 0.734914
vt 0.074908 0.667673
vt 0.463226 0.788419
vt 0.028269 0.341844
vt 0.459882 0.734914
vt 0.118862 0.749906
vt 0.459882 0.788419
vt 0.050447 0.383337
vt 0.456538 0.734914
vt 0.178015 0.821985
vt 0.456538 0.788419
vt 0.080294 0.419706
vt 0.453194 0.734914
vt 0.250094 0.881138
vt 0.453194 0.788419
vt 0.116663 0.449553
vt 0.449850 0.734914
vt 0.332327 0.925092
vt 0.158156 0.471731
vt 0.449850 0.788419
vt 0.446506 0.734914
vt 0.421556 0.952160
vt 0.203178 0.485388
vt 0.446506 0.788419
s 0
usemtl マテリアル
f 2/4/1 3/7/1 1/1/1
f 4/9/2 5/11/2 3/7/2
f 6/13/3 7/15/3 5/11/3
f 8/17/4 9/19/4 7/15/4
f 10/21/5 11/23/5 9/19/5
f 12/25/6 13/27/6 11/23/6
f 14/29/7 15/31/7 13/27/7
f 16/33/8 17/35/8 15/31/8
f 18/37/9 19/39/9 17/35/9
f 20/41/10 21/43/10 19/39/10
f 22/45/11 23/47/11 21/43/11
f 24/49/12 25/51/12 23/47/12
f 26/53/13 27/55/13 25/51/13
f 28/57/14 29/59/14 27/55/14
f 30/61/15 31/63/15 29/59/15
f 32/65/16 33/67/16 31/63/16
f 34/69/17 35/71/17 33/67/17
f 36/73/18 37/75/18 35/71/18
f 38/77/19 39/79/19 37/75/19
f 40/81/20 41/83/20 39/79/20
f 42/85/21 43/87/21 41/83/21
f 44/89/22 45/91/22 43/87/22
f 46/93/23 47/95/23 45/91/23
f 48/97/24 49/99/24 47/95/24
f 50/101/25 51/103/25 49/99/25
f 52/105/26 53/107/26 51/103/26
f 54/109/27 55/111/27 53/107/27
f 56/113/28 57/115/28 55/111/28
f 58/117/29 59/119/29 57/115/29
f 60/121/30 61/123/30 59/119/30
f 14/30/31 6/14/31 38/78/31
f 62/126/32 63/127/32 61/123/32
f 64/130/33 1/2/33 63/127/33
f 17/36/34 33/68/34 49/100/34
f 2/4/1 4/9/1 3/7/1
f 4/9/2 6/13/2 5/11/2
f 6/13/3 8/17/3 7/15/3
f 8/17/4 10/21/4 9/19/4
f 10/21/5 12/25/5 11/23/5
f 12/25/6 14/29/6 13/27/6
f 14/29/7 16/33/7 15/31/7
f 16/33/8 18/37/8 17/35/8
f 18/37/9 20/41/9 19/39/9
f 20/41/10 22/45/10 21/43/10
f 22/45/11 24/49/11 23/47/11
f 24/49/12 26/53/12 25/51/12
f 26/53/13 28/57/13 27/55/13
f 28/57/14 30/61/14 29/59/14
f 30/61/15 32/65/15 31/63/15
f 32/65/16 34/69/16 33/67/16
f 34/69/17 36/73/17 35/71/17
f 36/73/18 38/77/18 37/75/18
f 38/77/19 40/81/19 39/79/19
f 40/81/20 42/85/20 41/83/20
f 42/85/21 44/89/21 43/87/21
f 44/89/22 46/93/22 45/91/22
f 46/93/23 48/97/23 47/95/23
f 48/97/24 50/101/24 49/99/24
f 50/101/25 52/105/25 51/103/25
f 52/105/26 54/109/26 53/107/26
f 54/109/27 56/113/27 55/111/27
f 56/113/28 58/117/28 57/115/28
f 58/117/29 60/121/29 59/119/29
f 60/121/30 62/126/30 61/123/30
f 6/14/35 4/10/35 2/5/35
f 2/5/36 64/129/36 62/125/36
f 62/125/37 60/122/37 58/118/37
f 58/118/38 56/114/38 54/110/38
f 54/110/39 52/106/39 50/102/39
f 50/102/40 48/98/40 46/94/40
f 46/94/41 44/90/41 42/86/41
f 42/86/42 40/82/42 38/78/42
f 38/78/43 36/74/43 34/70/43
f 34/70/44 32/66/44 30/62/44
f 30/62/45 28/58/45 26/54/45
f 26/54/46 24/50/46 22/46/46
f 22/46/47 20/42/47 18/38/47
f 18/38/48 16/34/48 14/30/48
f 14/30/49 12/26/49 10/22/49
f 10/22/50 8/18/50 6/14/50
f 6/14/31 2/5/31 62/125/31
f 62/125/31 58/118/31 54/110/31
f 54/110/31 50/102/31 46/94/31
f 46/94/31 42/86/31 38/78/31
f 38/78/31 34/70/31 30/62/31
f 30/62/31 26/54/31 22/46/31
f 22/46/31 18/38/31 14/30/31
f 14/30/31 10/22/31 6/14/31
f 6/14/31 62/125/31 54/110/31
f 54/110/31 46/94/31 6/14/31
f 46/94/31 38/78/31 6/14/31
f 38/78/31 30/62/31 22/46/31
f 22/46/31 14/30/31 38/78/31
f 62/126/32 64/130/32 63/127/32
f 64/130/33 2/6/33 1/2/33
f 1/3/51 3/8/51 5/12/51
f 5/12/52 7/16/52 9/20/52
f 9/20/53 11/24/53 13/28/53
f 13/28/54 15/32/54 17/36/54
f 17/36/55 19/40/55 21/44/55
f 21/44/56 23/48/56 25/52/56
f 25/52/57 27/56/57 29/60/57
f 29/60/58 31/64/58 33/68/58
f 33/68/59 35/72/59 37/76/59
f 37/76/60 39/80/60 41/84/60
f 41/84/61 43/88/61 45/92/61
f 45/92/62 47/96/62 49/100/62
f 49/100/63 51/104/63 53/108/63
f 53/108/64 55/112/64 57/116/64
f 57/116/65 59/120/65 61/124/65
f 61/124/66 63/128/66 1/3/66
f 1/3/34 5/12/34 9/20/34
f 9/20/34 13/28/34 17/36/34
f 17/36/34 21/44/34 33/68/34
f 21/44/34 25/52/34 33/68/34
f 25/52/34 29/60/34 33/68/34
f 33/68/34 37/76/34 41/84/34
f 41/84/34 45/92/34 49/100/34
f 49/100/34 53/108/34 1/3/34
f 53/108/34 57/116/34 1/3/34
f 57/116/34 61/124/34 1/3/34
f 1/3/34 9/20/34 17/36/34
f 33/68/34 41/84/34 49/100/34
f 1/3/34 17/36/34 49/100/34
