# Blender 3.5.1
# www.blender.org
mtllib Enemy.mtl
o 円柱
v 0.000000 2.360570 -0.400000
v 0.000000 2.360570 0.400000
v 0.382683 1.466998 -0.400000
v 0.382683 1.466998 0.400000
v 0.707107 0.790034 -0.400000
v 0.707107 0.790034 0.400000
v 0.923880 0.382683 -0.400000
v 0.923880 0.382683 0.400000
v 1.000000 0.000000 -0.400000
v 1.000000 -0.000000 0.400000
v 0.923880 -0.382683 -0.400000
v 0.923880 -0.382683 0.400000
v 0.707107 -0.707107 -0.400000
v 0.707107 -0.707107 0.400000
v 0.382683 -0.923880 -0.400000
v 0.382683 -0.923880 0.400000
v 0.000000 -1.000000 -0.400000
v 0.000000 -1.000000 0.400000
v -0.382683 -0.923880 -0.400000
v -0.382683 -0.923880 0.400000
v -0.707107 -0.707107 -0.400000
v -0.707107 -0.707107 0.400000
v -0.923880 -0.382683 -0.400000
v -0.923880 -0.382683 0.400000
v -1.000000 0.000000 -0.400000
v -1.000000 -0.000000 0.400000
v -0.923880 0.382683 -0.400000
v -0.923880 0.382683 0.400000
v -0.707107 0.818875 -0.400000
v -0.707107 0.818875 0.400000
v -0.382683 1.425263 -0.400000
v -0.382683 1.425263 0.400000
vn 0.9192 0.3937 -0.0000
vn 0.9018 0.4322 -0.0000
vn 0.8828 0.4698 -0.0000
vn 0.9808 0.1951 -0.0000
vn 0.9808 -0.1951 -0.0000
vn 0.8315 -0.5556 -0.0000
vn 0.5556 -0.8315 -0.0000
vn 0.1951 -0.9808 -0.0000
vn -0.1951 -0.9808 -0.0000
vn -0.5556 -0.8315 -0.0000
vn -0.8315 -0.5556 -0.0000
vn -0.9808 -0.1951 -0.0000
vn -0.9808 0.1951 -0.0000
vn -0.8955 0.4450 -0.0000
vn -0.0000 -0.0000 1.0000
vn -0.8817 0.4717 -0.0000
vn -0.9255 0.3787 -0.0000
vn -0.0000 -0.0000 -1.0000
vt 1.000000 0.847087
vt 0.694174 0.847087
vt 0.499667 0.990666
vt 1.000000 1.000000
vt 0.250000 0.272710
vt 0.694174 1.000000
vt 0.980886 0.847087
vt 0.687309 0.953341
vt 0.980886 1.000000
vt 0.258691 0.270982
vt 0.961772 0.847087
vt 0.846385 0.847050
vt 0.961772 1.000000
vt 0.266059 0.266059
vt 0.942658 0.847087
vt 0.952676 0.687975
vt 0.942658 1.000000
vt 0.270982 0.258691
vt 0.923543 0.847087
vt 0.990000 0.500333
vt 0.923543 1.000000
vt 0.272710 0.250000
vt 0.904429 0.847087
vt 0.952676 0.312691
vt 0.904429 1.000000
vt 0.270982 0.241309
vt 0.885315 0.847087
vt 0.846385 0.153615
vt 0.885315 1.000000
vt 0.266059 0.233941
vt 0.866201 0.847087
vt 0.687309 0.047324
vt 0.866201 1.000000
vt 0.258691 0.229018
vt 0.847087 0.847087
vt 0.499667 0.010000
vt 0.847087 1.000000
vt 0.250000 0.227290
vt 0.827973 0.847087
vt 0.312025 0.047324
vt 0.827973 1.000000
vt 0.241309 0.229018
vt 0.808859 0.847087
vt 0.152950 0.153615
vt 0.808859 1.000000
vt 0.233941 0.233941
vt 0.789744 0.847087
vt 0.046659 0.312691
vt 0.789744 1.000000
vt 0.229018 0.241309
vt 0.770630 0.847087
vt 0.009334 0.500333
vt 0.770630 1.000000
vt 0.227290 0.250000
vt 0.751516 0.847087
vt 0.046659 0.687975
vt 0.751516 1.000000
vt 0.229018 0.258691
vt 0.732402 0.847087
vt 0.152950 0.847050
vt 0.233941 0.266059
vt 0.732402 1.000000
vt 0.713288 0.847087
vt 0.312025 0.953341
vt 0.241309 0.270982
vt 0.713288 1.000000
s 0
usemtl マテリアル.001
f 2/4/1 3/7/1 1/1/1
f 4/9/2 5/11/2 3/7/2
f 6/13/3 7/15/3 5/11/3
f 8/17/4 9/19/4 7/15/4
f 10/21/5 11/23/5 9/19/5
f 12/25/6 13/27/6 11/23/6
f 14/29/7 15/31/7 13/27/7
f 16/33/8 17/35/8 15/31/8
f 18/37/9 19/39/9 17/35/9
f 20/41/10 21/43/10 19/39/10
f 22/45/11 23/47/11 21/43/11
f 24/49/12 25/51/12 23/47/12
f 26/53/13 27/55/13 25/51/13
f 28/57/14 29/59/14 27/55/14
f 20/42/15 8/18/15 28/58/15
f 29/59/16 32/66/16 31/63/16
f 31/63/17 2/6/17 1/2/17
f 11/24/18 19/40/18 27/56/18
f 2/4/1 4/9/1 3/7/1
f 4/9/2 6/13/2 5/11/2
f 6/13/3 8/17/3 7/15/3
f 8/17/4 10/21/4 9/19/4
f 10/21/5 12/25/5 11/23/5
f 12/25/6 14/29/6 13/27/6
f 14/29/7 16/33/7 15/31/7
f 16/33/8 18/37/8 17/35/8
f 18/37/9 20/41/9 19/39/9
f 20/41/10 22/45/10 21/43/10
f 22/45/11 24/49/11 23/47/11
f 24/49/12 26/53/12 25/51/12
f 26/53/13 28/57/13 27/55/13
f 28/57/14 30/62/14 29/59/14
f 4/10/15 2/5/15 32/65/15
f 32/65/15 30/61/15 6/14/15
f 30/61/15 28/58/15 6/14/15
f 28/58/15 26/54/15 24/50/15
f 24/50/15 22/46/15 28/58/15
f 22/46/15 20/42/15 28/58/15
f 20/42/15 18/38/15 16/34/15
f 16/34/15 14/30/15 20/42/15
f 14/30/15 12/26/15 20/42/15
f 12/26/15 10/22/15 8/18/15
f 6/14/15 4/10/15 32/65/15
f 12/26/15 8/18/15 20/42/15
f 8/18/15 6/14/15 28/58/15
f 29/59/16 30/62/16 32/66/16
f 31/63/17 32/66/17 2/6/17
f 31/64/18 1/3/18 3/8/18
f 5/12/18 7/16/18 27/56/18
f 7/16/18 9/20/18 27/56/18
f 31/64/18 3/8/18 5/12/18
f 27/56/18 29/60/18 5/12/18
f 29/60/18 31/64/18 5/12/18
f 23/48/18 25/52/18 27/56/18
f 19/40/18 21/44/18 27/56/18
f 21/44/18 23/48/18 27/56/18
f 15/32/18 17/36/18 19/40/18
f 11/24/18 13/28/18 19/40/18
f 13/28/18 15/32/18 19/40/18
f 9/20/18 11/24/18 27/56/18
