# Blender 3.5.0
# www.blender.org
mtllib BorderLine.mtl
o Cube
v 40.000000 1.000000 -1.000000
v 40.000000 -1.000000 -1.000000
v 40.000000 1.000000 1.000000
v 40.000000 -1.000000 1.000000
v -40.000000 1.000000 -1.000000
v -40.000000 -1.000000 -1.000000
v -40.000000 1.000000 1.000000
v -40.000000 -1.000000 1.000000
vn -0.0000 1.0000 -0.0000
vn -0.0000 -0.0000 1.0000
vn -1.0000 -0.0000 -0.0000
vn -0.0000 -1.0000 -0.0000
vn 1.0000 -0.0000 -0.0000
vn -0.0000 -0.0000 -1.0000
vt 0.021796 1.000000
vt 0.000000 0.000000
vt 0.100000 1.000000
vt 0.022527 0.000000
vt 0.100000 0.000000
vt 0.000000 1.000000
vt 0.121796 1.000000
vt 0.145142 0.000000
vt 0.000000 1.000000
vt 0.045142 0.000000
vt 0.122527 0.000000
vt 0.100000 1.000000
vt 0.021796 0.000000
vt 0.055128 1.000000
vt 0.100000 0.000000
vt 0.155128 1.000000
vt 0.022527 1.000000
vt 0.000000 0.000000
vt 0.121796 0.000000
vt 0.145142 1.000000
vt 0.055128 0.000000
vt 0.045142 1.000000
vt 0.155128 0.000000
vt 0.122527 1.000000
s 0
usemtl Material
f 1/1/1 5/13/1 7/19/1 3/7/1
f 4/10/2 3/8/2 7/20/2 8/22/2
f 8/23/3 7/21/3 5/14/3 6/16/3
f 6/17/4 2/4/4 4/11/4 8/24/4
f 2/5/5 1/2/5 3/9/5 4/12/5
f 6/18/6 5/15/6 1/3/6 2/6/6
